# xmcd CD database file
#
# Track frame offsets:
#	150
#	22238
#	49639
#	70435
#	95897
#	120957
#	143244
#	162359
#	185856
#	199206
#	221118
#	247786
#	261775
#	273230
#	297604
#
# Disc length: 4383 seconds
#
# Revision: 0
# Processed by: cddbd v1.5.2PL0 Copyright (c) Steve Scherf et al.
# Submitted via: CDex 1.51
#
DISCID=f3111d0f
DTITLE=Jazz Improv - Vol. 7 Number 1 - Blue
DYEAR=2007
DGENRE=Jazz
TTITLE0=Jon Faddis - The Baron
TTITLE1=Carl White - I had no time to hate
TTITLE2=Nicole Pasternak - Don't go, Don't leave, Please Stay
TTITLE3=Dan McMillion - Change Up
TTITLE4=Eddie Gomez and Mark Kramer - Its not for me to say
TTITLE5=Peter Erskine - Reason to Believe
TTITLE6=Eric Nemeyer - Find it where it is 
TTITLE7=Chris Cortez - Trouble with Larry
TTITLE8=Louis Armstrong - Tiger Rag
TTITLE9=Ellen Johnson - Inspiration
TTITLE10=Robin Eubanks - RNB First Take
TTITLE11=Eric Frazier - The Jazz Spot
TTITLE12=Dukes of Dixieland - Vodka and Tonic
TTITLE13=Sonny Fortune - On Second and Fifth
TTITLE14=Richie Zellon - El Condor Pasa (traditional)
EXTD=YEAR: 2007
EXTT0=
EXTT1=
EXTT2=
EXTT3=
EXTT4=
EXTT5=
EXTT6=
EXTT7=
EXTT8=
EXTT9=
EXTT10=
EXTT11=
EXTT12=
EXTT13=
EXTT14=
PLAYORDER=
